<svg width="10280" height="5788" viewBox="0 0 10280 5788" fill="none" xmlns="http://www.w3.org/2000/svg">
<rect width="10280" height="5788" fill="#111114"/>
<path d="M2807.48 440.211L2848.74 450.953C2849.39 459.417 2849.72 466.741 2849.72 472.926C2849.72 505.315 2838 531.194 2814.56 550.562C2791.12 569.931 2759.71 579.615 2720.32 579.615C2621.53 579.615 2572.13 524.033 2572.13 412.867C2572.13 360.133 2586.53 317.408 2615.34 284.693C2644.15 251.816 2681.67 235.377 2727.89 235.377C2799.99 235.377 2836.04 270.045 2836.04 339.381L2794.54 358.424C2795.03 348.658 2795.27 341.09 2795.27 335.719C2795.27 286.565 2775.58 261.988 2736.19 261.988C2694.52 261.988 2673.69 314.153 2673.69 418.482C2673.69 508.163 2696.97 553.004 2743.52 553.004C2762.72 553.004 2778.67 545.354 2791.37 530.055C2804.23 514.755 2810.65 495.631 2810.65 472.682C2810.65 465.357 2809.6 454.534 2807.48 440.211ZM3058.7 483.912L3094.59 494.41C3090.85 551.214 3057.32 579.615 2994 579.615C2911.97 579.615 2870.96 538.681 2870.96 456.812C2870.96 417.099 2881.86 384.547 2903.67 359.156C2925.48 333.766 2953.4 321.07 2987.41 321.07C3058.54 321.07 3094.1 366.969 3094.1 458.766H2964.22C2964.22 523.219 2980.58 555.445 3013.29 555.445C3043.89 555.445 3059.19 537.216 3059.19 500.758C3059.19 495.875 3059.03 490.26 3058.7 483.912ZM2963.97 431.178H3017.2C3017.2 373.886 3008.57 345.24 2991.32 345.24C2975.69 345.24 2966.9 366.48 2964.95 408.961L2963.97 431.178ZM3309.43 417.262H3248.4C3250.51 407.659 3252.39 400.579 3254.01 396.021C3256.29 389.348 3257.43 383.326 3257.43 377.955C3257.43 367.538 3253.69 362.33 3246.2 362.33C3240.5 362.33 3235.05 369.247 3229.84 383.082C3224.64 396.754 3222.03 411.24 3222.03 426.539V574H3132.92V327.906L3150.25 328.15C3170.76 328.15 3194.69 325.953 3222.03 321.559V362.086C3236.52 335.068 3254.26 321.559 3275.25 321.559C3303.9 321.559 3318.22 337.346 3318.22 368.922C3318.22 377.223 3316.84 386.744 3314.07 397.486C3313.1 401.881 3311.55 408.473 3309.43 417.262ZM3594.59 565.211C3572.78 573.674 3551.54 577.906 3530.87 577.906C3500.27 577.906 3481.39 568.385 3474.23 549.342C3459.42 569.199 3438.1 579.127 3410.26 579.127C3358.34 579.127 3332.38 555.038 3332.38 506.861C3332.38 470.24 3356.15 444.524 3403.67 429.713C3447.29 416.041 3469.1 399.602 3469.1 380.396C3469.1 355.169 3456.57 342.555 3431.5 342.555C3402.53 342.555 3388.05 354.762 3388.05 379.176C3388.05 386.826 3390.33 396.917 3394.88 409.449L3350.69 400.904C3349.55 393.255 3348.98 386.093 3348.98 379.42C3348.98 340.357 3384.63 320.826 3455.92 320.826C3523.63 320.826 3557.48 339.055 3557.48 375.514V524.928C3557.48 540.227 3562.44 547.877 3572.37 547.877C3575.47 547.877 3580.02 546.168 3586.04 542.75L3594.59 565.211ZM3468.37 426.051C3462.84 432.398 3456.41 437.688 3449.08 441.92C3430.69 452.662 3421.49 470.729 3421.49 496.119C3421.49 528.671 3427.84 544.947 3440.54 544.947C3459.09 544.947 3468.37 528.834 3468.37 496.607V426.051ZM3971.54 574H3882.43V389.186C3882.43 373.072 3877.71 365.016 3868.27 365.016C3846.46 365.016 3835.56 388.209 3835.56 434.596V574H3746.45V393.092C3746.45 374.7 3742.21 365.504 3733.75 365.504C3711.61 365.504 3700.55 388.616 3700.55 434.84V574H3611.44V327.174C3641.55 327.174 3671.25 325.139 3700.55 321.07V363.551C3721.54 335.393 3747.42 321.314 3778.18 321.314C3803.9 321.314 3823.02 334.579 3835.56 361.109C3855.41 334.254 3880.23 320.826 3910.02 320.826C3951.04 320.826 3971.54 341.578 3971.54 383.082V574ZM4067.73 232.447C4095.4 232.447 4109.24 243.189 4109.24 264.674C4109.24 286.158 4095.4 296.9 4067.73 296.9C4040.07 296.9 4026.23 286.158 4026.23 264.674C4026.23 243.189 4040.07 232.447 4067.73 232.447ZM4022.57 574V328.15C4050.4 328.15 4080.1 325.953 4111.68 321.559V574H4022.57ZM4337.02 464.137L4374.62 475.611L4374.86 485.621C4374.86 548.121 4340.68 579.371 4272.32 579.371C4191.27 579.371 4150.74 538.274 4150.74 456.08C4150.74 414.902 4162.54 382.105 4186.14 357.691C4209.74 333.115 4241.4 320.826 4281.11 320.826C4338.24 320.826 4366.81 346.705 4366.81 398.463L4325.06 418.727L4325.55 395.289C4325.55 360.133 4313.75 342.555 4290.15 342.555C4258.9 342.555 4243.27 377.06 4243.27 446.07C4243.27 488.714 4246.61 518.01 4253.28 533.961C4259.95 549.749 4272.32 557.643 4290.39 557.643C4323.43 557.643 4339.95 536.24 4339.95 493.434C4339.95 487.411 4338.97 477.646 4337.02 464.137ZM4598.5 391.139L4555.28 398.707C4555.28 361.923 4538.19 343.531 4504.01 343.531C4483.02 343.531 4472.52 352.158 4472.52 369.41C4472.52 382.105 4490.59 395.777 4526.72 410.426C4582.06 433.049 4609.73 461.777 4609.73 496.607C4609.73 552.109 4574.49 579.859 4504.01 579.859C4429.47 579.859 4392.2 552.109 4392.2 496.607L4438.1 487.33C4437.44 492.701 4437.12 497.747 4437.12 502.467C4437.12 516.79 4443.06 529.241 4454.94 539.82C4466.99 550.4 4481.15 555.689 4497.42 555.689C4518.91 555.689 4529.65 546.575 4529.65 528.346C4529.65 516.139 4512.31 502.63 4477.65 487.818C4425.4 465.357 4399.28 436.549 4399.28 401.393C4399.28 378.118 4409.29 359.075 4429.31 344.264C4449.33 329.29 4475.04 321.803 4506.46 321.803C4562.28 321.803 4592.96 344.915 4598.5 391.139ZM5163.93 240.748L5073.11 574H5010.12L4963.73 392.115L4916.61 574H4853.62L4767.69 240.748H4864.85L4915.39 442.896L4965.93 240.748H5022.81L5072.62 443.629L5125.84 240.748H5163.93ZM5296.01 321.559C5377.39 321.559 5418.08 364.527 5418.08 450.465C5418.08 536.402 5377.39 579.371 5296.01 579.371C5214.46 579.371 5173.69 536.402 5173.69 450.465C5173.69 364.527 5214.46 321.559 5296.01 321.559ZM5295.76 343.287C5276.07 343.287 5266.22 379.013 5266.22 450.465C5266.22 521.917 5276.07 557.643 5295.76 557.643C5315.62 557.643 5325.55 521.917 5325.55 450.465C5325.55 379.013 5315.62 343.287 5295.76 343.287ZM5632.68 417.262H5571.64C5573.76 407.659 5575.63 400.579 5577.26 396.021C5579.53 389.348 5580.67 383.326 5580.67 377.955C5580.67 367.538 5576.93 362.33 5569.44 362.33C5563.75 362.33 5558.29 369.247 5553.09 383.082C5547.88 396.754 5545.27 411.24 5545.27 426.539V574H5456.16V327.906L5473.5 328.15C5494 328.15 5517.93 325.953 5545.27 321.559V362.086C5559.76 335.068 5577.5 321.559 5598.5 321.559C5627.14 321.559 5641.46 337.346 5641.46 368.922C5641.46 377.223 5640.08 386.744 5637.31 397.486C5636.34 401.881 5634.79 408.473 5632.68 417.262ZM5757.92 235.865V574H5668.81V240.748C5693.39 240.748 5723.09 239.12 5757.92 235.865ZM6027.45 235.621V574H5938.34V552.76C5923.37 570.663 5903.35 579.615 5878.28 579.615C5822.94 579.615 5795.27 537.135 5795.27 452.174C5795.27 364.771 5824.57 321.07 5883.16 321.07C5906.28 321.07 5924.67 331.243 5938.34 351.588V240.748C5965.2 240.748 5994.9 239.039 6027.45 235.621ZM5911.97 356.959C5897 356.959 5889.51 370.712 5889.51 398.219L5887.8 450.465L5888.78 498.072C5888.78 528.508 5897.24 543.727 5914.17 543.727C5930.61 543.727 5938.83 528.753 5938.83 498.805L5940.05 438.746L5938.1 397.73C5935.49 370.549 5926.78 356.959 5911.97 356.959ZM6539.9 240.748V574H6446.64V342.066L6381.7 574H6327.74L6261.09 345.973V574H6228.62V240.748H6326.77L6383.9 441.92L6440.78 240.748H6539.9ZM6841.66 565.211C6819.85 573.674 6798.61 577.906 6777.94 577.906C6747.34 577.906 6728.46 568.385 6721.3 549.342C6706.49 569.199 6685.17 579.127 6657.33 579.127C6605.41 579.127 6579.45 555.038 6579.45 506.861C6579.45 470.24 6603.22 444.524 6650.74 429.713C6694.36 416.041 6716.17 399.602 6716.17 380.396C6716.17 355.169 6703.64 342.555 6678.57 342.555C6649.6 342.555 6635.12 354.762 6635.12 379.176C6635.12 386.826 6637.4 396.917 6641.95 409.449L6597.76 400.904C6596.62 393.255 6596.05 386.093 6596.05 379.42C6596.05 340.357 6631.7 320.826 6702.99 320.826C6770.7 320.826 6804.55 339.055 6804.55 375.514V524.928C6804.55 540.227 6809.51 547.877 6819.44 547.877C6822.54 547.877 6827.09 546.168 6833.12 542.75L6841.66 565.211ZM6715.44 426.051C6709.91 432.398 6703.48 437.688 6696.15 441.92C6677.76 452.662 6668.56 470.729 6668.56 496.119C6668.56 528.671 6674.91 544.947 6687.61 544.947C6706.16 544.947 6715.44 528.834 6715.44 496.607V426.051ZM7035.02 417.262H6973.98C6976.1 407.659 6977.97 400.579 6979.6 396.021C6981.88 389.348 6983.02 383.326 6983.02 377.955C6983.02 367.538 6979.27 362.33 6971.79 362.33C6966.09 362.33 6960.64 369.247 6955.43 383.082C6950.22 396.754 6947.62 411.24 6947.62 426.539V574H6858.51V327.906L6875.84 328.15C6896.35 328.15 6920.27 325.953 6947.62 321.559V362.086C6962.1 335.068 6979.84 321.559 7000.84 321.559C7029.49 321.559 7043.81 337.346 7043.81 368.922C7043.81 377.223 7042.43 386.744 7039.66 397.486C7038.68 401.881 7037.14 408.473 7035.02 417.262ZM7290.88 327.906L7240.1 391.627L7313.34 574H7219.35L7176.62 465.602L7160.26 485.621V574H7071.15V240.748C7097.36 240.748 7127.06 238.958 7160.26 235.377V443.873L7255.23 327.906H7290.88ZM7511.34 483.912L7547.23 494.41C7543.48 551.214 7509.95 579.615 7446.64 579.615C7364.61 579.615 7323.59 538.681 7323.59 456.812C7323.59 417.099 7334.5 384.547 7356.31 359.156C7378.12 333.766 7406.03 321.07 7440.05 321.07C7511.18 321.07 7546.74 366.969 7546.74 458.766H7416.86C7416.86 523.219 7433.21 555.445 7465.93 555.445C7496.53 555.445 7511.83 537.216 7511.83 500.758C7511.83 495.875 7511.66 490.26 7511.34 483.912ZM7416.61 431.178H7469.83C7469.83 373.886 7461.21 345.24 7443.96 345.24C7428.33 345.24 7419.54 366.48 7417.59 408.961L7416.61 431.178ZM7718.12 328.639V356.227H7678.57V530.299C7678.57 541.204 7682.07 546.656 7689.07 546.656C7694.12 546.656 7697.13 542.994 7698.11 535.67L7723.5 538.111C7716.5 563.827 7694.2 576.686 7656.6 576.686C7611.84 576.686 7589.46 557.643 7589.46 519.557V356.227H7559.68V328.639H7589.46V285.182C7620.22 276.718 7649.93 264.511 7678.57 248.561V328.639H7718.12Z" fill="white"/>
</svg>
